<svg width="24" height="24" viewBox="0 0 24 24" fill="none" xmlns="http://www.w3.org/2000/svg">
<circle opacity="0.8" cx="9" cy="15" r="5" fill="#B0B4BB"/>
<circle opacity="0.4" cx="15" cy="9" r="5" fill="#B0B4BB"/>
<path d="M4.21897 5.19891C4.05958 4.60405 4.60391 4.05972 5.19877 4.21911L8.41269 5.08028C9.00755 5.23967 9.20679 5.98324 8.77132 6.41871L6.41856 8.77147C5.9831 9.20693 5.23953 9.00769 5.08014 8.41284L4.21897 5.19891Z" fill="#0A0B0D"/>
<path d="M20.1106 19.1308C20.27 19.7257 19.7257 20.27 19.1308 20.1106L15.9169 19.2494C15.322 19.09 15.1228 18.3465 15.5583 17.911L17.911 15.5582C18.3465 15.1228 19.0901 15.322 19.2494 15.9169L20.1106 19.1308Z" fill="#0A0B0D"/>
</svg>
